<?xml version="1.0" standalone="no"?><!DOCTYPE svg PUBLIC "-//W3C//DTD SVG 1.1//EN" "http://www.w3.org/Graphics/SVG/1.1/DTD/svg11.dtd"><svg t="1766065924044" class="icon" viewBox="0 0 1024 1024" version="1.1" xmlns="http://www.w3.org/2000/svg" p-id="28060" xmlns:xlink="http://www.w3.org/1999/xlink" width="200" height="200"><path d="M506.88-0.046548m72.407734 72.407734l362.038672 362.038672q72.407734 72.407734 0 144.815469l-362.038672 362.038672q-72.407734 72.407734-144.815468 0l-362.038672-362.038672q-72.407734-72.407734 0-144.815469l362.038672-362.038672q72.407734-72.407734 144.815468 0Z" fill="#F5A623" p-id="28061"></path><path d="M686.2336 512l168.0384 153.6L614.4 906.752l-193.9968-197.6832z" fill="#ED9300" p-id="28062"></path><path d="M693.9136 709.376H417.28c1.024-1.1776 1.6896-2.048 2.4576-2.7136l235.2128-222.976c1.3312-1.2288 2.304-2.4064 4.608-1.3312 17.7152 8.3456 30.208 20.9408 32.768 41.1648 0.9216 6.8096 1.024 13.824 1.024 20.6848 0.256 52.6336 0.4096 105.3184 0.5632 158.0032v7.168zM533.9648 257.6896c3.328 0.6656 6.7584 1.1776 10.0352 2.048 31.3856 7.8848 51.9168 28.416 62.3104 58.0608 14.6944 41.8304 7.8848 80.1792-22.528 113.5104a5.3248 5.3248 0 0 0-0.8704 4.608c2.4064 5.9904 4.9152 12.032 7.936 17.7664 1.3312 2.56 1.024 3.84-0.9728 5.7344-50.6368 47.872-101.1712 95.7952-151.7568 143.7184l-78.4896 74.3936-3.9424 3.4816v-13.056c0.1536-39.2192 0.2048-78.4896 0.512-117.7088-0.1024-8.192 0.2048-16.384 0.8704-24.5248 1.536-17.5104 10.5472-30.3616 25.4464-39.2704 15.1552-8.9088 32.4608-13.6192 50.0736-13.7216 9.984-0.1536 17.2544-3.9424 21.9136-12.0832 5.2224-9.2672 9.4208-19.2 13.824-28.928 0.512-1.024 0-3.072-0.8192-3.9424a103.5264 103.5264 0 0 1-26.112-78.2336c2.6624-36.1472 18.176-65.1264 50.7904-83.1488 7.9872-4.3008 16.7936-7.0656 25.856-7.9872 0.9216-0.1024 1.8432-0.512 2.8672-0.7168h13.056z" fill="#FFFFFF" p-id="28063"></path></svg>